<mxfile host="app.diagrams.net" modified="2020-05-13T10:53:23.670Z" agent="5.0 (Windows NT 10.0; Win64; x64) AppleWebKit/537.36 (KHTML, like Gecko) Chrome/81.0.4044.129 Safari/537.36" etag="783dCTFpKljEnfqR-UpN" version="13.1.1" type="github">
  <diagram id="6S549oayQgu0W3BweA8-" name="Page-1">
    <mxGraphModel dx="1038" dy="580" grid="1" gridSize="10" guides="1" tooltips="1" connect="1" arrows="1" fold="1" page="1" pageScale="1" pageWidth="827" pageHeight="1169" math="0" shadow="0">
      <root>
        <mxCell id="0" />
        <mxCell id="1" parent="0" />
        <mxCell id="LsYdlpTca8UGjEfv1lKb-1" value="" style="rounded=0;whiteSpace=wrap;html=1;" vertex="1" parent="1">
          <mxGeometry x="270" y="130" width="180" height="230" as="geometry" />
        </mxCell>
        <mxCell id="LsYdlpTca8UGjEfv1lKb-5" value="Previous hash" style="rounded=1;whiteSpace=wrap;html=1;" vertex="1" parent="1">
          <mxGeometry x="300" y="140" width="110" height="40" as="geometry" />
        </mxCell>
        <mxCell id="LsYdlpTca8UGjEfv1lKb-6" value="Data" style="rounded=1;whiteSpace=wrap;html=1;" vertex="1" parent="1">
          <mxGeometry x="300" y="200" width="110" height="40" as="geometry" />
        </mxCell>
        <mxCell id="LsYdlpTca8UGjEfv1lKb-7" value="Hash" style="rounded=1;whiteSpace=wrap;html=1;" vertex="1" parent="1">
          <mxGeometry x="305" y="310" width="110" height="40" as="geometry" />
        </mxCell>
      </root>
    </mxGraphModel>
  </diagram>
</mxfile>
